# Blender v2.79 (sub 0) OBJ File: 'gumdrop.blend'
# www.blender.org
mtllib gumdrop.mtl
o Cylinder
v 0.000000 -0.499000 0.000000
v 0.000000 -0.499000 -0.356851
v -0.000000 -0.092094 -0.290854
v 0.178426 -0.499000 -0.309042
v 0.145427 -0.092094 -0.251887
v 0.309042 -0.499000 -0.178426
v 0.251887 -0.092094 -0.145427
v 0.356851 -0.499000 0.000000
v 0.290854 -0.092094 0.000000
v 0.309042 -0.499000 0.178426
v 0.251887 -0.092094 0.145427
v 0.178426 -0.499000 0.309042
v 0.145427 -0.092094 0.251887
v 0.000000 -0.499000 0.356851
v 0.000000 -0.092094 0.290854
v -0.178426 -0.499000 0.309042
v -0.145427 -0.092094 0.251887
v -0.309042 -0.499000 0.178426
v -0.251887 -0.092094 0.145427
v -0.356851 -0.499000 0.000000
v -0.290854 -0.092094 0.000000
v -0.309042 -0.499000 -0.178425
v -0.251887 -0.092094 -0.145427
v -0.178426 -0.499000 -0.309042
v -0.145427 -0.092094 -0.251887
v -0.000000 0.032592 -0.200910
v -0.000000 0.083179 0.000000
v 0.100455 0.032592 -0.173993
v 0.173993 0.032592 -0.100455
v 0.200910 0.032592 0.000000
v 0.173993 0.032592 0.100455
v 0.100455 0.032592 0.173993
v 0.000000 0.032592 0.200910
v -0.100455 0.032592 0.173993
v -0.173993 0.032592 0.100455
v -0.200910 0.032592 0.000000
v -0.173993 0.032592 -0.100455
v -0.100455 0.032592 -0.173993
vt 0.500000 0.500000
vt 0.500000 1.000000
vt 0.750000 0.933013
vt 0.248999 0.001001
vt 0.001001 0.001001
vt 0.001001 0.248999
vt 0.248999 0.248999
vt 1.250000 0.000000
vt 1.250000 0.562500
vt 1.000000 0.562500
vt 1.000000 0.000000
vt 0.933013 0.750000
vt 0.248999 0.251001
vt 0.001001 0.251001
vt 0.001001 0.498999
vt 0.248999 0.498999
vt 0.750000 0.562500
vt 0.750000 -0.000000
vt 1.000000 0.500000
vt 0.498999 0.001001
vt 0.251001 0.001001
vt 0.251001 0.248999
vt 0.498999 0.248999
vt 0.500000 0.562500
vt 0.500000 0.000000
vt 0.933013 0.250000
vt 0.498999 0.251001
vt 0.251001 0.251001
vt 0.251001 0.498999
vt 0.498999 0.498999
vt 0.250000 0.562500
vt 0.250000 -0.000000
vt 0.750000 0.066987
vt 0.248999 0.501001
vt 0.001001 0.501001
vt 0.001001 0.748999
vt 0.248999 0.748999
vt -0.000000 0.562500
vt -0.000000 0.000000
vt 0.500000 0.000000
vt 0.748999 0.001001
vt 0.501001 0.001001
vt 0.501001 0.248999
vt 0.748999 0.248999
vt 3.000000 0.000000
vt 3.000000 0.562500
vt 2.750000 0.562500
vt 2.750000 0.000000
vt 0.250000 0.066987
vt 0.498999 0.501001
vt 0.251001 0.501001
vt 0.251001 0.748999
vt 0.498999 0.748999
vt 2.500000 0.562500
vt 2.500000 0.000000
vt 0.066987 0.250000
vt 0.748999 0.251001
vt 0.501001 0.251001
vt 0.501001 0.498999
vt 0.748999 0.498999
vt 2.250000 0.562500
vt 2.250000 0.000000
vt 0.000000 0.500000
vt 0.748999 0.501001
vt 0.501001 0.501001
vt 0.501001 0.748999
vt 0.748999 0.748999
vt 2.000000 0.562500
vt 2.000000 0.000000
vt 0.066987 0.750000
vt 0.248999 0.751001
vt 0.001001 0.751001
vt 0.001001 0.998999
vt 0.248999 0.998999
vt 1.750000 0.562500
vt 1.750000 -0.000000
vt 0.250000 0.933013
vt 0.998999 0.001001
vt 0.751001 0.001001
vt 0.751001 0.248999
vt 0.998999 0.248999
vt 1.500000 0.562500
vt 1.500000 0.000000
vt 0.498999 0.751001
vt 0.251001 0.751001
vt 0.251001 0.998999
vt 0.498999 0.998999
vt 0.500000 0.500000
vt 0.750000 0.933013
vt 0.500000 1.000000
vt 0.933013 0.750000
vt 1.000000 0.500000
vt 0.933013 0.250000
vt 0.750000 0.066987
vt 0.500000 -0.000000
vt 0.250000 0.066987
vt 0.066987 0.250000
vt -0.000000 0.500000
vt 0.066987 0.750000
vt 0.250000 0.933013
vn 0.0000 -1.0000 0.0000
vn 0.5802 0.5717 -0.5802
vn 0.2557 0.1548 -0.9543
vn 0.7925 0.5717 0.2124
vn 0.6986 0.1548 -0.6986
vn 0.2124 0.5717 0.7925
vn 0.9543 0.1548 -0.2557
vn -0.5802 0.5717 0.5802
vn 0.9543 0.1548 0.2557
vn -0.7925 0.5717 -0.2124
vn 0.6986 0.1548 0.6986
vn 0.7925 0.5717 -0.2124
vn 0.2557 0.1548 0.9543
vn 0.5802 0.5717 0.5802
vn -0.2557 0.1548 0.9543
vn -0.2124 0.5717 0.7925
vn -0.6986 0.1548 0.6986
vn -0.7925 0.5717 0.2124
vn -0.9543 0.1548 0.2557
vn 0.2124 0.5717 -0.7925
vn -0.9543 0.1548 -0.2557
vn -0.5802 0.5717 -0.5802
vn -0.6986 0.1548 -0.6986
vn -0.2124 0.5717 -0.7925
vn -0.2557 0.1548 -0.9543
vn 0.0653 0.9677 -0.2436
vn 0.1784 0.9677 -0.1784
vn 0.2436 0.9677 -0.0653
vn 0.2436 0.9677 0.0653
vn 0.1784 0.9677 0.1784
vn 0.0653 0.9677 0.2436
vn -0.0653 0.9677 0.2436
vn -0.1784 0.9677 0.1784
vn -0.2436 0.9677 0.0653
vn -0.2436 0.9677 -0.0653
vn -0.1784 0.9677 -0.1784
vn -0.0653 0.9677 -0.2436
usemtl Material
s off
f 1/1/1 2/2/1 4/3/1
f 7/4/2 5/5/2 28/6/2 29/7/2
f 2/8/3 3/9/3 5/10/3 4/11/3
f 1/1/1 4/3/1 6/12/1
f 11/13/4 9/14/4 30/15/4 31/16/4
f 4/11/5 5/10/5 7/17/5 6/18/5
f 1/1/1 6/12/1 8/19/1
f 15/20/6 13/21/6 32/22/6 33/23/6
f 6/18/7 7/17/7 9/24/7 8/25/7
f 1/1/1 8/19/1 10/26/1
f 19/27/8 17/28/8 34/29/8 35/30/8
f 8/25/9 9/24/9 11/31/9 10/32/9
f 1/1/1 10/26/1 12/33/1
f 23/34/10 21/35/10 36/36/10 37/37/10
f 10/32/11 11/31/11 13/38/11 12/39/11
f 1/1/1 12/33/1 14/40/1
f 9/41/12 7/42/12 29/43/12 30/44/12
f 12/45/13 13/46/13 15/47/13 14/48/13
f 1/1/1 14/40/1 16/49/1
f 13/50/14 11/51/14 31/52/14 32/53/14
f 14/48/15 15/47/15 17/54/15 16/55/15
f 1/1/1 16/49/1 18/56/1
f 17/57/16 15/58/16 33/59/16 34/60/16
f 16/55/17 17/54/17 19/61/17 18/62/17
f 1/1/1 18/56/1 20/63/1
f 21/64/18 19/65/18 35/66/18 36/67/18
f 18/62/19 19/61/19 21/68/19 20/69/19
f 1/1/1 20/63/1 22/70/1
f 5/71/20 3/72/20 26/73/20 28/74/20
f 20/69/21 21/68/21 23/75/21 22/76/21
f 1/1/1 22/70/1 24/77/1
f 25/78/22 23/79/22 37/80/22 38/81/22
f 22/76/23 23/75/23 25/82/23 24/83/23
f 1/1/1 24/77/1 2/2/1
f 3/84/24 25/85/24 38/86/24 26/87/24
f 24/83/25 25/82/25 3/9/25 2/8/25
f 27/88/26 28/89/26 26/90/26
f 27/88/27 29/91/27 28/89/27
f 27/88/28 30/92/28 29/91/28
f 27/88/29 31/93/29 30/92/29
f 27/88/30 32/94/30 31/93/30
f 27/88/31 33/95/31 32/94/31
f 27/88/32 34/96/32 33/95/32
f 27/88/33 35/97/33 34/96/33
f 27/88/34 36/98/34 35/97/34
f 27/88/35 37/99/35 36/98/35
f 27/88/36 38/100/36 37/99/36
f 27/88/37 26/90/37 38/100/37
